ply
format ascii 1.0
element vertex 160
property float x
property float y
property float z
property uchar red
property uchar green
property uchar blue
element face 292
property list uchar int vertex_indices
end_header
-2.10000 0.15000 -0.95000 204 26 26
2.10000 0.15000 -0.95000 204 26 26
2.10000 0.95000 -0.95000 204 26 26
-2.10000 0.95000 -0.95000 204 26 26
-2.10000 0.15000 0.95000 204 26 26
2.10000 0.15000 0.95000 204 26 26
2.10000 0.95000 0.95000 204 26 26
-2.10000 0.95000 0.95000 204 26 26
-0.95000 0.80000 -0.85000 38 56 82
1.15000 0.80000 -0.85000 38 56 82
1.15000 1.50000 -0.85000 38 56 82
-0.95000 1.50000 -0.85000 38 56 82
-0.95000 0.80000 0.85000 38 56 82
1.15000 0.80000 0.85000 38 56 82
1.15000 1.50000 0.85000 38 56 82
-0.95000 1.50000 0.85000 38 56 82
1.65000 0.20000 -0.92500 204 26 26
2.15000 0.20000 -0.92500 204 26 26
2.15000 0.70000 -0.92500 204 26 26
1.65000 0.70000 -0.92500 204 26 26
1.65000 0.20000 0.92500 204 26 26
2.15000 0.20000 0.92500 204 26 26
2.15000 0.70000 0.92500 204 26 26
1.65000 0.70000 0.92500 204 26 26
-0.70000 0.18000 -1.15500 20 20 23
-0.74187 0.39048 -1.15500 20 20 23
-0.86109 0.56891 -1.15500 20 20 23
-1.03952 0.68813 -1.15500 20 20 23
-1.25000 0.73000 -1.15500 20 20 23
-1.46048 0.68813 -1.15500 20 20 23
-1.63891 0.56891 -1.15500 20 20 23
-1.75813 0.39048 -1.15500 20 20 23
-1.80000 0.18000 -1.15500 20 20 23
-1.75813 -0.03048 -1.15500 20 20 23
-1.63891 -0.20891 -1.15500 20 20 23
-1.46048 -0.32813 -1.15500 20 20 23
-1.25000 -0.37000 -1.15500 20 20 23
-1.03952 -0.32813 -1.15500 20 20 23
-0.86109 -0.20891 -1.15500 20 20 23
-0.74187 -0.03048 -1.15500 20 20 23
-0.70000 0.18000 -0.80500 20 20 23
-0.74187 0.39048 -0.80500 20 20 23
-0.86109 0.56891 -0.80500 20 20 23
-1.03952 0.68813 -0.80500 20 20 23
-1.25000 0.73000 -0.80500 20 20 23
-1.46048 0.68813 -0.80500 20 20 23
-1.63891 0.56891 -0.80500 20 20 23
-1.75813 0.39048 -0.80500 20 20 23
-1.80000 0.18000 -0.80500 20 20 23
-1.75813 -0.03048 -0.80500 20 20 23
-1.63891 -0.20891 -0.80500 20 20 23
-1.46048 -0.32813 -0.80500 20 20 23
-1.25000 -0.37000 -0.80500 20 20 23
-1.03952 -0.32813 -0.80500 20 20 23
-0.86109 -0.20891 -0.80500 20 20 23
-0.74187 -0.03048 -0.80500 20 20 23
-1.25000 0.18000 -1.15500 20 20 23
-1.25000 0.18000 -0.80500 20 20 23
-0.70000 0.18000 0.80500 20 20 23
-0.74187 0.39048 0.80500 20 20 23
-0.86109 0.56891 0.80500 20 20 23
-1.03952 0.68813 0.80500 20 20 23
-1.25000 0.73000 0.80500 20 20 23
-1.46048 0.68813 0.80500 20 20 23
-1.63891 0.56891 0.80500 20 20 23
-1.75813 0.39048 0.80500 20 20 23
-1.80000 0.18000 0.80500 20 20 23
-1.75813 -0.03048 0.80500 20 20 23
-1.63891 -0.20891 0.80500 20 20 23
-1.46048 -0.32813 0.80500 20 20 23
-1.25000 -0.37000 0.80500 20 20 23
-1.03952 -0.32813 0.80500 20 20 23
-0.86109 -0.20891 0.80500 20 20 23
-0.74187 -0.03048 0.80500 20 20 23
-0.70000 0.18000 1.15500 20 20 23
-0.74187 0.39048 1.15500 20 20 23
-0.86109 0.56891 1.15500 20 20 23
-1.03952 0.68813 1.15500 20 20 23
-1.25000 0.73000 1.15500 20 20 23
-1.46048 0.68813 1.15500 20 20 23
-1.63891 0.56891 1.15500 20 20 23
-1.75813 0.39048 1.15500 20 20 23
-1.80000 0.18000 1.15500 20 20 23
-1.75813 -0.03048 1.15500 20 20 23
-1.63891 -0.20891 1.15500 20 20 23
-1.46048 -0.32813 1.15500 20 20 23
-1.25000 -0.37000 1.15500 20 20 23
-1.03952 -0.32813 1.15500 20 20 23
-0.86109 -0.20891 1.15500 20 20 23
-0.74187 -0.03048 1.15500 20 20 23
-1.25000 0.18000 0.80500 20 20 23
-1.25000 0.18000 1.15500 20 20 23
1.90000 0.18000 -1.15500 20 20 23
1.85813 0.39048 -1.15500 20 20 23
1.73891 0.56891 -1.15500 20 20 23
1.56048 0.68813 -1.15500 20 20 23
1.35000 0.73000 -1.15500 20 20 23
1.13952 0.68813 -1.15500 20 20 23
0.96109 0.56891 -1.15500 20 20 23
0.84187 0.39048 -1.15500 20 20 23
0.80000 0.18000 -1.15500 20 20 23
0.84187 -0.03048 -1.15500 20 20 23
0.96109 -0.20891 -1.15500 20 20 23
1.13952 -0.32813 -1.15500 20 20 23
1.35000 -0.37000 -1.15500 20 20 23
1.56048 -0.32813 -1.15500 20 20 23
1.73891 -0.20891 -1.15500 20 20 23
1.85813 -0.03048 -1.15500 20 20 23
1.90000 0.18000 -0.80500 20 20 23
1.85813 0.39048 -0.80500 20 20 23
1.73891 0.56891 -0.80500 20 20 23
1.56048 0.68813 -0.80500 20 20 23
1.35000 0.73000 -0.80500 20 20 23
1.13952 0.68813 -0.80500 20 20 23
0.96109 0.56891 -0.80500 20 20 23
0.84187 0.39048 -0.80500 20 20 23
0.80000 0.18000 -0.80500 20 20 23
0.84187 -0.03048 -0.80500 20 20 23
0.96109 -0.20891 -0.80500 20 20 23
1.13952 -0.32813 -0.80500 20 20 23
1.35000 -0.37000 -0.80500 20 20 23
1.56048 -0.32813 -0.80500 20 20 23
1.73891 -0.20891 -0.80500 20 20 23
1.85813 -0.03048 -0.80500 20 20 23
1.35000 0.18000 -1.15500 20 20 23
1.35000 0.18000 -0.80500 20 20 23
1.90000 0.18000 0.80500 20 20 23
1.85813 0.39048 0.80500 20 20 23
1.73891 0.56891 0.80500 20 20 23
1.56048 0.68813 0.80500 20 20 23
1.35000 0.73000 0.80500 20 20 23
1.13952 0.68813 0.80500 20 20 23
0.96109 0.56891 0.80500 20 20 23
0.84187 0.39048 0.80500 20 20 23
0.80000 0.18000 0.80500 20 20 23
0.84187 -0.03048 0.80500 20 20 23
0.96109 -0.20891 0.80500 20 20 23
1.13952 -0.32813 0.80500 20 20 23
1.35000 -0.37000 0.80500 20 20 23
1.56048 -0.32813 0.80500 20 20 23
1.73891 -0.20891 0.80500 20 20 23
1.85813 -0.03048 0.80500 20 20 23
1.90000 0.18000 1.15500 20 20 23
1.85813 0.39048 1.15500 20 20 23
1.73891 0.56891 1.15500 20 20 23
1.56048 0.68813 1.15500 20 20 23
1.35000 0.73000 1.15500 20 20 23
1.13952 0.68813 1.15500 20 20 23
0.96109 0.56891 1.15500 20 20 23
0.84187 0.39048 1.15500 20 20 23
0.80000 0.18000 1.15500 20 20 23
0.84187 -0.03048 1.15500 20 20 23
0.96109 -0.20891 1.15500 20 20 23
1.13952 -0.32813 1.15500 20 20 23
1.35000 -0.37000 1.15500 20 20 23
1.56048 -0.32813 1.15500 20 20 23
1.73891 -0.20891 1.15500 20 20 23
1.85813 -0.03048 1.15500 20 20 23
1.35000 0.18000 0.80500 20 20 23
1.35000 0.18000 1.15500 20 20 23
3 0 1 2
3 0 2 3
3 5 4 7
3 5 7 6
3 4 0 3
3 4 3 7
3 1 5 6
3 1 6 2
3 3 2 6
3 3 6 7
3 4 5 1
3 4 1 0
3 8 9 10
3 8 10 11
3 13 12 15
3 13 15 14
3 12 8 11
3 12 11 15
3 9 13 14
3 9 14 10
3 11 10 14
3 11 14 15
3 12 13 9
3 12 9 8
3 16 17 18
3 16 18 19
3 21 20 23
3 21 23 22
3 20 16 19
3 20 19 23
3 17 21 22
3 17 22 18
3 19 18 22
3 19 22 23
3 20 21 17
3 20 17 16
3 24 25 41
3 24 41 40
3 56 25 24
3 57 40 41
3 25 26 42
3 25 42 41
3 56 26 25
3 57 41 42
3 26 27 43
3 26 43 42
3 56 27 26
3 57 42 43
3 27 28 44
3 27 44 43
3 56 28 27
3 57 43 44
3 28 29 45
3 28 45 44
3 56 29 28
3 57 44 45
3 29 30 46
3 29 46 45
3 56 30 29
3 57 45 46
3 30 31 47
3 30 47 46
3 56 31 30
3 57 46 47
3 31 32 48
3 31 48 47
3 56 32 31
3 57 47 48
3 32 33 49
3 32 49 48
3 56 33 32
3 57 48 49
3 33 34 50
3 33 50 49
3 56 34 33
3 57 49 50
3 34 35 51
3 34 51 50
3 56 35 34
3 57 50 51
3 35 36 52
3 35 52 51
3 56 36 35
3 57 51 52
3 36 37 53
3 36 53 52
3 56 37 36
3 57 52 53
3 37 38 54
3 37 54 53
3 56 38 37
3 57 53 54
3 38 39 55
3 38 55 54
3 56 39 38
3 57 54 55
3 39 24 40
3 39 40 55
3 56 24 39
3 57 55 40
3 58 59 75
3 58 75 74
3 90 59 58
3 91 74 75
3 59 60 76
3 59 76 75
3 90 60 59
3 91 75 76
3 60 61 77
3 60 77 76
3 90 61 60
3 91 76 77
3 61 62 78
3 61 78 77
3 90 62 61
3 91 77 78
3 62 63 79
3 62 79 78
3 90 63 62
3 91 78 79
3 63 64 80
3 63 80 79
3 90 64 63
3 91 79 80
3 64 65 81
3 64 81 80
3 90 65 64
3 91 80 81
3 65 66 82
3 65 82 81
3 90 66 65
3 91 81 82
3 66 67 83
3 66 83 82
3 90 67 66
3 91 82 83
3 67 68 84
3 67 84 83
3 90 68 67
3 91 83 84
3 68 69 85
3 68 85 84
3 90 69 68
3 91 84 85
3 69 70 86
3 69 86 85
3 90 70 69
3 91 85 86
3 70 71 87
3 70 87 86
3 90 71 70
3 91 86 87
3 71 72 88
3 71 88 87
3 90 72 71
3 91 87 88
3 72 73 89
3 72 89 88
3 90 73 72
3 91 88 89
3 73 58 74
3 73 74 89
3 90 58 73
3 91 89 74
3 92 93 109
3 92 109 108
3 124 93 92
3 125 108 109
3 93 94 110
3 93 110 109
3 124 94 93
3 125 109 110
3 94 95 111
3 94 111 110
3 124 95 94
3 125 110 111
3 95 96 112
3 95 112 111
3 124 96 95
3 125 111 112
3 96 97 113
3 96 113 112
3 124 97 96
3 125 112 113
3 97 98 114
3 97 114 113
3 124 98 97
3 125 113 114
3 98 99 115
3 98 115 114
3 124 99 98
3 125 114 115
3 99 100 116
3 99 116 115
3 124 100 99
3 125 115 116
3 100 101 117
3 100 117 116
3 124 101 100
3 125 116 117
3 101 102 118
3 101 118 117
3 124 102 101
3 125 117 118
3 102 103 119
3 102 119 118
3 124 103 102
3 125 118 119
3 103 104 120
3 103 120 119
3 124 104 103
3 125 119 120
3 104 105 121
3 104 121 120
3 124 105 104
3 125 120 121
3 105 106 122
3 105 122 121
3 124 106 105
3 125 121 122
3 106 107 123
3 106 123 122
3 124 107 106
3 125 122 123
3 107 92 108
3 107 108 123
3 124 92 107
3 125 123 108
3 126 127 143
3 126 143 142
3 158 127 126
3 159 142 143
3 127 128 144
3 127 144 143
3 158 128 127
3 159 143 144
3 128 129 145
3 128 145 144
3 158 129 128
3 159 144 145
3 129 130 146
3 129 146 145
3 158 130 129
3 159 145 146
3 130 131 147
3 130 147 146
3 158 131 130
3 159 146 147
3 131 132 148
3 131 148 147
3 158 132 131
3 159 147 148
3 132 133 149
3 132 149 148
3 158 133 132
3 159 148 149
3 133 134 150
3 133 150 149
3 158 134 133
3 159 149 150
3 134 135 151
3 134 151 150
3 158 135 134
3 159 150 151
3 135 136 152
3 135 152 151
3 158 136 135
3 159 151 152
3 136 137 153
3 136 153 152
3 158 137 136
3 159 152 153
3 137 138 154
3 137 154 153
3 158 138 137
3 159 153 154
3 138 139 155
3 138 155 154
3 158 139 138
3 159 154 155
3 139 140 156
3 139 156 155
3 158 140 139
3 159 155 156
3 140 141 157
3 140 157 156
3 158 141 140
3 159 156 157
3 141 126 142
3 141 142 157
3 158 126 141
3 159 157 142
